<?xml version="1.0" encoding="UTF-8"?><svg id="_레이어_2" xmlns="http://www.w3.org/2000/svg" width="48" height="48" viewBox="0 0 48 48"><defs><style>.cls-1,.cls-2{fill:#fff;}.cls-2{opacity:0;}.cls-3{fill:#e8a27c;}.cls-4{fill:#f7ecd3;}.cls-5{fill:#141618;}.cls-6{fill:#ebd090;}.cls-7{fill:#e81857;}.cls-8{fill:#e43d1d;}</style></defs><g id="_레이어_1-2"><rect class="cls-2" width="48" height="48"/><path class="cls-5" d="m8.18,23.51c-.7-.49-1.61-1.26-2.05-3-.64-2.56.02-4.08,1.43-4.75,1.07-.51,2.12-.33,2.12-.33-.17-3.52.71-6.7,2.08-8.64,1.49-2.11,3.54-4.04,7.78-4.57s6.98-.23,9.73.55,5.44,2.32,6.89,4.04c1.68,2,2.46,3.6,2.94,5.23s.31,2.51.31,2.51c.94.07,2.1.52,2.54,1.63.4,1,.33,2.56-.49,4.03s-2.18,1.65-2.18,1.65c0,0-.44.67-1.89,2.02s-4.87,3.07-8.65,3.76-7.41.67-10.44.44-4.42-.8-5.46-1.47c-.7-.44-1.7-1.42-2.09-2.32,0,0-1.31.09-2.57-.8Z"/><path class="cls-6" d="m6.71,18.11c-.17,1.63.57,2.87,1.38,3.74s2.04.78,2.04.78c-.11-.71-.18-2.27-.11-3.15s-.11-2.48-.25-3.38c0,0-.79-.19-1.61.14-.61.24-1.34.86-1.45,1.86Z"/><path class="cls-6" d="m41.5,17.19c.19,1.12-.2,2.06-.69,2.79-.43.65-1.44.93-1.44.93.09-.41-.2-1.7-.26-2.69s-.02-1.73.15-2.77c0,0,1.91-.12,2.23,1.74Z"/><path class="cls-8" d="m20.9,15.19c-.6-.22-1.58-.4-2.76-.28-1.17.13-1.83.34-2.3.69-.09.06-.16.13-.23.2.27,0,.54-.01.81-.02,1.67-.05,3.34-.26,4.67-.51-.07-.03-.14-.06-.21-.08Z"/><path class="cls-8" d="m24.48,13.47c-.03-.93-.16-2.23-.84-4.36-.6-1.89-.8-4.4-1.99-6.5-2.68.2-4.87.75-6.5,1.84-1.81,1.22-2.77,2.56-3.46,3.89-.71,1.37-1.13,3.38-1.19,4.68-.05,1.08-.03,1.89,0,2.56,1.12.15,2.55.23,4.23.22.22-.3.61-.71,1.35-1.05.98-.46,2.74-.71,4.26-.44.83.15,1.52.43,1.98.7.17-.04.32-.08.47-.12,1.35-.38,1.72-.49,1.7-1.42Z"/><path class="cls-8" d="m31.64,14.44c-.36.06-.66.16-.91.28.78.04,1.61.06,2.46.03.42-.01.84-.04,1.24-.09-.81-.25-1.91-.36-2.79-.22Z"/><path class="cls-8" d="m38.34,12.06c-.3-1.13-1-2.51-2.15-4.01s-3.42-3.38-5.63-4.16c-2.2-.78-4.91-1.48-8.01-1.34-.07,0-.15,0-.22.01.64,1.13.94,2.06,1.22,3.17.35,1.39.44,2.2.83,3.29.38,1.09.84,2.88.87,3.8.03.92.31,1.24,1.58,1.45.65.11,1.62.25,2.76.35.3-.21.71-.47,1.17-.63.7-.24,1.8-.36,2.93-.21.81.11,1.57.4,2.1.66,1.13-.2,2.08-.47,2.7-.73.04-.3-.01-1.16-.15-1.67Z"/><path class="cls-7" d="m28.36,27.03c-.6.11-1.29.05-1.79-.2-.44-.22-.9-.82-1.06-1.24s-.25-.84-.24-1.08.16-.26.54-.3c.35-.04,2.15-.26,2.76-.37s.77-.14.92-.08.23.18.32.59.13,1.22-.1,1.71c-.3.66-.87.88-1.35.96Z"/><path class="cls-6" d="m38.32,15.74c.06-.48.11-.89.14-1.3-.16.06-.34.12-.54.18-.37.11-.82.24-1.36.36.22.21.3.41.26.62-.05.28-.33.37-.51.21-.14-.12-.35-.35-.78-.63-1.03.17-2.27.29-3.69.27-.71-.01-1.4-.04-2.03-.09-.09.08-.17.16-.24.24-.41.42-.71.42-.81.25-.09-.14-.07-.34.09-.57-1.37-.12-2.4-.28-2.86-.36-.73-.12-1.83.24-3.1.58.17.25.13.45.03.55-.13.12-.33.19-.59-.03-.09-.08-.23-.18-.38-.29-1.4.3-3.45.62-5.45.7-.44.02-.89.03-1.34.04-.03.07-.05.15-.08.22-.1.34-.29.56-.52.45-.17-.09-.3-.29-.2-.65-1.53,0-2.94-.06-3.81-.2.03.33.07.64.1.95.11,1.06.23,2.25.18,3.4-.05,1.15.16,2.41,1.03,3.81.87,1.4,2.53,2.17,4.71,2.65,2.18.48,5.7.59,8.33.38.36-.03.7-.06,1.05-.1-.6-.5-1.21-1.31-1.4-1.76-.22-.52-.31-1.14-.26-1.49s.2-.48.49-.53c.3-.05,1.35-.13,2.57-.3,1.22-.17,1.76-.23,2.07-.3.31-.07.6-.09.86.2s.52,1.31.52,2.07c0,.55-.15,1-.27,1.28.59-.16,1.16-.35,1.72-.55,2.22-.81,3.56-1.78,4.5-2.53.94-.76,1.61-1.56,1.64-2.48.02-.92-.18-1.54-.23-2.34-.05-.8.02-1.76.15-2.9Zm-11.26,5.77c-.22.04-.44-.11-.48-.35-.05-.23.09-.46.31-.5.22-.04.44.11.48.35.05.23-.09.46-.31.5Z"/><path class="cls-3" d="m18.48,22.71c-.1-.05-.25-.02-.37.1-.18.18-.74,1.09-.98,1.64-.16.37-.14.56.08.67.04.02.08.03.12.03.17,0,.31-.2.49-.55l.03-.05c.26-.5.66-1.25.71-1.54.04-.2-.06-.28-.1-.3Z"/><path class="cls-3" d="m31.9,22.11c-.12-.04-.29.03-.37.17-.13.2-.36.79-.47,1.4-.05.26-.04.43.03.53.04.05.09.08.16.1.01,0,.02,0,.03,0,.17,0,.29-.2.41-.67.06-.22.12-.43.17-.61.08-.26.14-.48.17-.64.02-.13-.03-.24-.13-.27Z"/><path class="cls-3" d="m35.49,22.31c-.12-.04-.29.03-.37.17-.14.23-.23.4-.34.99-.05.26-.04.43.03.53.04.05.09.08.16.09.01,0,.02,0,.03,0,.17,0,.29-.2.41-.67.05-.18.08-.3.1-.39.05-.19.07-.26.1-.46.02-.13-.03-.24-.13-.27Z"/><path class="cls-3" d="m33.56,22.68c-.08-.04-.22-.03-.33.1-.18.2-.35.67-.45,1.26-.05.3-.04.5.04.62.03.05.08.08.14.09.02,0,.03,0,.05,0,.18,0,.29-.18.37-.6.07-.37.15-.71.22-.96.03-.11.05-.2.07-.27.02-.1-.01-.19-.09-.23Z"/><path class="cls-3" d="m23.19,23.26c-.11-.04-.26.02-.33.15-.12.2-.32.91-.42,1.44-.05.27-.03.47.06.57.04.04.08.06.13.06h0c.18,0,.29-.18.36-.59.06-.37.17-.8.24-1.11.02-.1.05-.19.06-.25.04-.19-.07-.25-.1-.26Z"/><path class="cls-3" d="m21.77,23.37c-.1-.05-.22-.02-.3.08-.16.19-.44.94-.59,1.59-.05.24-.1.57.11.65.03.01.05.02.08.02.03,0,.06,0,.09-.02.12-.06.21-.25.29-.6.06-.26.17-.59.26-.88.07-.23.13-.42.16-.54.03-.14,0-.25-.1-.3Z"/><path class="cls-3" d="m20.26,23.24c-.11-.05-.25,0-.35.12-.17.19-.6,1.02-.86,1.77-.11.31-.18.63.07.74.04.02.07.02.11.02s.07,0,.1-.02c.13-.06.24-.24.36-.59.09-.26.23-.56.36-.86.17-.38.32-.71.34-.88.03-.21-.08-.28-.12-.3Z"/><path class="cls-4" d="m16.38,19.27c.03.98.36,1.92.8,2.59s1.31,1.25,2.04,1.42c.84.2,1.78.26,2.69-.08s1.5-1.38,1.64-2.34-.23-2.23-.23-2.23l-1.33-.48-3.23.14-2.25.69-.12.29Z"/><path class="cls-4" d="m30.16,18.96c.08.84.35,1.91.73,2.51.44.68,1.19,1.17,2.27,1.24,1.21.08,2.09-.32,2.7-.97s.93-1.79.69-3.23l-1.97-.61-2.25.24-1.82.48-.35.33Z"/><path class="cls-5" d="m24.81,18.93c-.24-.24-1.37-.83-2.32-1.01-.95-.18-2.45-.28-4.61.15-1.57.31-2.67.8-3.32,1.14-.39.2-.52.46-.42.71.1.26.4.29.7.13.28-.15,1.16-.6,2.32-.91.03.94.2,1.9.88,2.82.72.98,1.64,1.34,2.82,1.22,1.13-.12,1.74-.76,2.04-1.4.29-.64.34-1.45.11-2.23-.08-.29-.17-.51-.27-.68.66.2,1.04.41,1.29.6.33.25.61.35.83.2.11-.07.29-.41-.03-.73Z"/><path class="cls-5" d="m37.28,18.52c-.05-.19-.43-.38-.89-.54-.68-.23-1.69-.45-3.14-.41-1.44.04-2.84.47-3.79,1.09-.36.24-.48.47-.41.68.08.24.38.26.7.09.21-.11.52-.31.98-.52.04.88.19,1.69.61,2.42.47.83,1.21,1.16,2.08,1.21.89.05,1.67-.31,2.14-.91.42-.54.58-1.25.62-1.92.03-.41,0-.78-.06-1.06.13.04.24.07.33.11.26.1.45.17.6.15.15-.02.28-.19.22-.38Z"/><path class="cls-1" d="m32.73,20.12c-.4.24-.76.19-.96-.06s-.22-.94-.15-1.21.28-.38.54-.42.58.06.86.41.3.94-.29,1.29Z"/><path class="cls-1" d="m33.76,20.78c-.24-.01-.35-.18-.34-.39s.24-.27.45-.21c.2.06.29.23.26.39-.03.12-.14.21-.37.2Z"/><path class="cls-1" d="m20.63,19.64c-.06-.37.04-.69.22-.88s.54-.15.7,0c.21.19.25.5.39.8.12.26.29.64.19.85s-.38.23-.63.14-.79-.34-.87-.9Z"/><path class="cls-1" d="m19.73,20.86c-.19.02-.35-.16-.37-.37s0-.42.19-.45.4.2.43.42-.08.39-.25.41Z"/><polygon class="cls-5" points="2.15 36.18 .44 36.18 .44 43.53 5.92 43.53 5.92 42.15 2.15 42.15 2.15 36.18"/><rect class="cls-5" x="6.26" y="35.93" width="1.71" height="1.66"/><rect class="cls-5" x="6.26" y="38.01" width="1.71" height="5.52"/><path class="cls-5" d="m13.8,38.45c-.23-.19-.5-.35-.8-.45-.48-.17-.99-.21-1.5-.11-.18.03-.36.09-.53.15-.17.07-.33.15-.48.24-.07.04-.13.09-.19.14l-.09-.4h-1.47v5.52h1.71v-3.13c.07-.37.22-.67.45-.87.22-.2.49-.31.79-.31.35,0,.63.1.83.31.2.21.3.56.3,1.04v2.96h1.71v-3.45c0-.34-.07-.65-.2-.93-.13-.28-.31-.52-.54-.71Z"/><path class="cls-5" d="m26.36,38.67c-.26-.26-.57-.47-.91-.61-.34-.15-.7-.22-1.06-.22-.45,0-.86.07-1.22.22-.24.1-.46.23-.65.38v-2.25h-1.71v7.32l-2.77-2.9,2.74-2.59h-2.14l-1.83,1.74v-3.57h-1.71v7.35h1.71v-2l1.92,2h3.55l.13-.54c.07.07.15.13.24.19.16.12.34.21.53.29.19.08.39.14.59.18.18.04.36.05.54.05.03,0,.06,0,.08,0,.38,0,.75-.09,1.09-.24.34-.15.64-.36.9-.61.26-.26.47-.57.62-.92.15-.35.23-.74.23-1.16s-.08-.82-.24-1.18c-.16-.36-.37-.67-.63-.93Zm-.84,2.12c0,.24-.04.46-.11.65-.07.19-.17.35-.3.49-.13.13-.28.23-.45.3-.35.14-.76.14-1.11,0-.17-.07-.32-.17-.45-.3-.13-.13-.23-.29-.3-.49-.07-.19-.11-.41-.11-.65,0-.25.04-.47.11-.66.07-.19.17-.35.3-.48.13-.13.28-.23.45-.3.17-.07.36-.11.55-.11s.38.04.55.11c.17.07.32.17.45.3.13.13.23.29.3.48.07.19.11.41.11.66Z"/><path class="cls-5" d="m33.49,40.63c-.02-.42-.11-.81-.27-1.16-.16-.35-.38-.66-.65-.92-.27-.25-.59-.46-.96-.6-.37-.14-.77-.22-1.21-.22s-.87.07-1.25.22c-.38.15-.72.36-1,.62-.28.27-.51.59-.67.96s-.25.79-.25,1.24.09.89.26,1.26c.17.37.41.69.71.95.3.26.65.46,1.05.6.4.14.83.21,1.29.21.53,0,1.03-.11,1.49-.33.45-.22.85-.53,1.17-.92l.1-.12-1.14-.87-.09.11c-.22.27-.47.46-.74.57-.28.11-.59.17-.93.17s-.65-.07-.88-.21c-.18-.11-.32-.26-.43-.44l4.41-1.02v-.12Zm-1.78-.87l-2.84.68c.06-.37.2-.68.44-.91.28-.27.67-.4,1.16-.4.29,0,.55.06.78.19.18.1.33.25.46.45Z"/><path class="cls-5" d="m45.85,38.01v3c-.07.34-.22.62-.45.83-.23.2-.49.3-.79.3-.35,0-.63-.1-.83-.31-.2-.21-.3-.56-.3-1.04v-2.78h-2.94c-.32,0-.6.06-.84.17-.14.07-.27.15-.38.25l-.09-.41h-2.73c-.32,0-.6.06-.84.17-.14.07-.27.15-.38.25l-.09-.41h-1.5v5.52h1.71v-3.03c0-.14.02-.28.07-.42.05-.13.11-.25.2-.36.08-.1.17-.18.28-.24.1-.06.21-.08.32-.08h1.24l.22-1.06v5.2h1.71v-3.03c0-.14.02-.28.07-.42.05-.13.11-.25.2-.36.08-.1.17-.18.28-.24.1-.06.21-.08.32-.08h1.24l.22-1.06v2.85c0,.34.07.65.2.94.13.29.31.54.54.74.23.21.5.37.8.49.61.24,1.34.23,1.98,0,.21-.08.4-.19.56-.32v.12c0,.49-.12.87-.34,1.13-.23.26-.52.38-.91.38-.32,0-.57-.08-.74-.23-.17-.15-.27-.38-.29-.68v-.14h-1.74l.02.16c.04.4.15.75.32,1.03.17.29.4.53.66.72.27.19.57.32.91.41.29.07.6.11.92.11.05,0,.09,0,.14,0,.4-.01.78-.09,1.11-.22.34-.14.63-.33.88-.58.24-.25.43-.55.57-.9.13-.35.2-.74.2-1.18v-5.15h-1.71Z"/></g></svg>