<?xml version="1.0" encoding="UTF-8"?><svg id="_레이어_2" xmlns="http://www.w3.org/2000/svg" width="40" height="40" viewBox="0 0 40 40"><defs><style>.cls-1,.cls-2{fill:#fff;}.cls-2{opacity:0;}.cls-3{fill:#e8a27c;}.cls-4{fill:#f7ecd3;}.cls-5{fill:#141618;}.cls-6{fill:#ebd090;}.cls-7{fill:#e81857;}.cls-8{fill:#e43d1d;}</style></defs><g id="_레이어_1-2"><rect class="cls-2" x="0" y="0" width="40" height="40"/><path class="cls-5" d="m4.71,27.17c-.68-.47-1.56-1.21-1.98-2.9-.62-2.47.02-3.94,1.38-4.59,1.03-.49,2.05-.32,2.05-.32-.16-3.4.69-6.48,2.01-8.35,1.44-2.04,3.42-3.91,7.52-4.42s6.75-.22,9.41.53c2.66.75,5.26,2.24,6.66,3.91,1.62,1.93,2.37,3.48,2.84,5.06s.3,2.43.3,2.43c.91.07,2.03.5,2.46,1.58.39.96.32,2.48-.48,3.9s-2.11,1.6-2.11,1.6c0,0-.43.64-1.83,1.95s-4.7,2.97-8.36,3.63c-3.66.67-7.16.65-10.09.43-2.93-.22-4.27-.78-5.28-1.42-.67-.43-1.64-1.38-2.02-2.24,0,0-1.26.09-2.49-.77Z"/><path class="cls-6" d="m3.29,21.95c-.16,1.57.55,2.77,1.33,3.62s1.97.75,1.97.75c-.11-.69-.18-2.2-.11-3.04s-.11-2.4-.24-3.26c0,0-.77-.18-1.55.13-.59.24-1.3.83-1.4,1.8Z"/><path class="cls-6" d="m36.91,21.06c.19,1.09-.2,1.99-.67,2.69-.42.62-1.39.9-1.39.9.09-.4-.19-1.64-.25-2.6s-.01-1.67.15-2.68c0,0,1.85-.12,2.16,1.69Z"/><path class="cls-8" d="m17,19.13c-.58-.21-1.53-.39-2.66-.27-1.13.12-1.76.33-2.22.67-.08.06-.16.12-.23.19.26,0,.52-.01.79-.02,1.61-.05,3.23-.25,4.52-.49-.07-.03-.13-.05-.2-.08Z"/><path class="cls-8" d="m20.46,17.46c-.03-.9-.16-2.16-.81-4.22-.58-1.83-.77-4.25-1.93-6.28-2.59.19-4.7.72-6.28,1.78-1.75,1.18-2.68,2.48-3.34,3.76-.69,1.33-1.09,3.26-1.15,4.52-.05,1.05-.03,1.82,0,2.47,1.08.14,2.46.22,4.09.22.21-.29.59-.68,1.31-1.02.94-.44,2.65-.69,4.12-.42.8.14,1.47.41,1.91.67.16-.04.31-.08.45-.12,1.3-.37,1.66-.47,1.64-1.38Z"/><path class="cls-8" d="m27.39,18.4c-.35.06-.64.15-.88.27.75.04,1.55.05,2.38.03.41-.01.81-.04,1.2-.08-.79-.24-1.84-.35-2.7-.21Z"/><path class="cls-8" d="m33.86,16.1c-.29-1.09-.97-2.43-2.08-3.87s-3.31-3.26-5.44-4.02c-2.13-.75-4.75-1.43-7.74-1.29-.07,0-.14,0-.21.01.62,1.09.9,1.99,1.18,3.07.34,1.35.43,2.13.8,3.18.37,1.05.81,2.78.84,3.67.03.89.3,1.2,1.52,1.41.63.11,1.56.24,2.67.34.29-.21.69-.45,1.13-.61.67-.24,1.74-.35,2.83-.2.78.11,1.52.38,2.03.64,1.09-.19,2.01-.46,2.61-.71.04-.29-.01-1.12-.15-1.62Z"/><path class="cls-7" d="m24.21,30.57c-.58.1-1.25.05-1.73-.19-.43-.21-.87-.79-1.02-1.2s-.24-.81-.23-1.04.15-.25.52-.29c.34-.03,2.07-.26,2.66-.36s.74-.13.89-.08.22.17.31.57.12,1.17-.1,1.66c-.29.64-.84.85-1.3.93Z"/><path class="cls-6" d="m33.84,19.66c.06-.47.1-.86.14-1.26-.16.06-.33.12-.52.18-.36.11-.8.23-1.31.35.21.21.29.4.25.6-.04.27-.32.36-.5.2-.13-.11-.34-.34-.75-.61-1,.17-2.2.28-3.57.26-.69-.01-1.35-.04-1.96-.08-.08.08-.16.16-.23.23-.4.4-.69.41-.79.25-.09-.14-.07-.33.09-.55-1.32-.12-2.32-.27-2.76-.35-.7-.11-1.77.23-3,.56.17.24.13.44.03.53-.12.12-.32.18-.57-.03-.09-.08-.22-.18-.37-.28-1.35.29-3.34.59-5.27.68-.43.02-.86.03-1.29.04-.03.07-.05.14-.07.21-.1.33-.28.54-.5.43-.16-.08-.29-.28-.19-.63-1.48,0-2.84-.06-3.68-.2.03.32.07.62.1.92.11,1.02.22,2.17.18,3.28-.04,1.11.16,2.33,1,3.68.84,1.35,2.44,2.09,4.55,2.56,2.11.47,5.51.57,8.05.37.34-.03.68-.06,1.01-.09-.58-.48-1.17-1.27-1.36-1.71-.21-.5-.3-1.1-.26-1.44s.19-.47.48-.51c.29-.04,1.31-.12,2.49-.29,1.18-.17,1.7-.22,2-.29.3-.07.58-.09.83.19s.5,1.27.5,2c0,.53-.14.97-.27,1.24.57-.16,1.12-.33,1.67-.53,2.14-.78,3.44-1.72,4.35-2.45.91-.73,1.56-1.51,1.58-2.4.02-.89-.18-1.49-.22-2.26-.04-.78.02-1.7.15-2.8Zm-10.88,5.58c-.21.04-.42-.11-.47-.33-.04-.23.09-.44.3-.49.21-.04.42.11.47.33.04.23-.09.44-.3.49Z"/><path class="cls-3" d="m14.66,26.39c-.1-.05-.25-.01-.35.09-.18.18-.71,1.06-.94,1.58-.16.36-.13.54.08.65.04.02.08.03.12.03.16,0,.3-.19.48-.53l.03-.05c.25-.48.63-1.21.69-1.49.04-.19-.05-.27-.1-.29Z"/><path class="cls-3" d="m27.64,25.81c-.12-.04-.28.03-.36.17-.12.2-.35.76-.46,1.35-.05.25-.04.42.03.51.04.05.09.08.16.09.01,0,.02,0,.03,0,.16,0,.28-.2.39-.64.05-.21.11-.41.17-.59.07-.25.14-.46.16-.62.02-.13-.03-.23-.12-.26Z"/><path class="cls-3" d="m31.11,26.01c-.12-.04-.28.03-.36.17-.13.22-.22.39-.32.96-.05.25-.04.42.03.51.04.05.09.08.16.09.01,0,.02,0,.03,0,.16,0,.28-.2.39-.64.04-.17.08-.29.1-.38.05-.18.07-.26.09-.44.02-.13-.03-.23-.12-.26Z"/><path class="cls-3" d="m29.24,26.37c-.08-.04-.21-.03-.32.1-.17.19-.34.65-.44,1.22-.05.29-.04.49.04.6.03.05.08.08.13.08.02,0,.03,0,.05,0,.18,0,.28-.17.36-.58.07-.36.15-.69.21-.93.03-.1.05-.19.07-.26.02-.1-.01-.18-.09-.22Z"/><path class="cls-3" d="m19.21,26.93c-.11-.04-.25.02-.32.14-.11.19-.31.88-.41,1.39-.05.26-.03.45.05.55.03.04.08.06.13.06h0c.18,0,.28-.17.34-.57.06-.35.16-.77.23-1.07.02-.1.04-.18.06-.25.04-.18-.06-.24-.1-.25Z"/><path class="cls-3" d="m17.84,27.03c-.09-.05-.21-.02-.29.08-.16.19-.42.91-.57,1.54-.05.23-.1.55.1.63.03.01.05.02.08.02.03,0,.06,0,.09-.02.11-.06.2-.24.28-.58.06-.25.16-.57.25-.85.07-.22.13-.41.16-.52.03-.13,0-.24-.1-.29Z"/><path class="cls-3" d="m16.38,26.9c-.1-.05-.24,0-.34.12-.16.19-.58.99-.83,1.71-.1.3-.17.61.07.71.04.01.07.02.1.02s.06,0,.09-.02c.13-.06.23-.23.35-.57.09-.25.22-.55.34-.83.16-.37.31-.69.33-.85.02-.2-.08-.27-.12-.29Z"/><path class="cls-4" d="m12.64,23.07c.03.95.35,1.86.77,2.5s1.27,1.2,1.97,1.37c.81.2,1.72.25,2.6-.08s1.45-1.33,1.58-2.26-.22-2.15-.22-2.15l-1.29-.46-3.12.13-2.17.67-.12.28Z"/><path class="cls-4" d="m25.95,22.77c.07.81.33,1.84.71,2.43.42.65,1.15,1.13,2.19,1.2,1.17.08,2.02-.31,2.61-.94s.9-1.73.67-3.12l-1.91-.59-2.17.24-1.76.46-.34.32Z"/><path class="cls-5" d="m20.78,22.74c-.24-.24-1.32-.8-2.24-.98-.92-.18-2.36-.27-4.46.14-1.52.3-2.58.78-3.21,1.1-.37.19-.51.44-.41.69.1.25.39.28.68.13.27-.14,1.12-.58,2.24-.88.03.91.19,1.83.85,2.72.7.95,1.59,1.3,2.72,1.18,1.09-.12,1.69-.73,1.97-1.35.28-.62.33-1.41.11-2.16-.08-.28-.17-.49-.26-.66.63.19,1,.4,1.25.58.32.24.58.34.8.19.11-.07.28-.39-.03-.7Z"/><path class="cls-5" d="m32.83,22.35c-.05-.18-.41-.37-.86-.52-.66-.22-1.63-.44-3.03-.4-1.39.04-2.74.45-3.66,1.06-.35.23-.46.46-.39.65.08.23.37.25.68.09.2-.11.5-.3.95-.51.04.85.19,1.63.59,2.34.46.8,1.17,1.12,2.01,1.17.86.05,1.62-.3,2.07-.88.41-.53.56-1.2.6-1.86.03-.4,0-.75-.06-1.03.13.04.23.07.32.1.25.1.43.17.58.14.14-.02.27-.18.22-.37Z"/><path class="cls-1" d="m28.44,23.89c-.39.23-.73.18-.93-.06s-.21-.91-.14-1.17.27-.37.52-.41.56.06.83.4.29.91-.28,1.24Z"/><path class="cls-1" d="m29.43,24.53c-.23-.01-.34-.17-.33-.37s.23-.26.44-.2c.19.06.28.22.25.38-.03.11-.13.2-.36.19Z"/><path class="cls-1" d="m16.74,23.43c-.05-.36.04-.67.21-.85s.52-.14.67,0c.2.19.25.48.38.77.12.25.28.62.18.82s-.36.22-.61.13-.76-.33-.84-.87Z"/><path class="cls-1" d="m15.88,24.6c-.19.02-.34-.15-.36-.36s0-.4.19-.44.38.19.41.41-.08.38-.24.39Z"/></g></svg>